<svg xmlns="http://www.w3.org/2000/svg" viewBox="0 0 560 130" role="img" aria-label="The Boss — light lockup">
  <defs>
    <clipPath id="ctr-lt"><rect x="7" y="7" width="116" height="116" rx="22"/></clipPath>
    <mask id="m-lt"><rect width="560" height="130" fill="white"/><polygon points="65,35 90.98,50 90.98,80 65,95 39.02,80 39.02,50" fill="black"/></mask>
  </defs>
  <rect x="7" y="7" width="116" height="116" rx="22" fill="#111827"/>
  <g clip-path="url(#ctr-lt)" stroke="#1A2432" stroke-width="0.5" opacity="0.6" fill="none">
    <line x1="7" y1="19" x2="123" y2="19"/><line x1="7" y1="31" x2="123" y2="31"/><line x1="7" y1="43" x2="123" y2="43"/><line x1="7" y1="55" x2="123" y2="55"/><line x1="7" y1="67" x2="123" y2="67"/><line x1="7" y1="79" x2="123" y2="79"/><line x1="7" y1="91" x2="123" y2="91"/><line x1="7" y1="103" x2="123" y2="103"/><line x1="7" y1="115" x2="123" y2="115"/>
    <line x1="19" y1="7" x2="19" y2="123"/><line x1="31" y1="7" x2="31" y2="123"/><line x1="43" y1="7" x2="43" y2="123"/><line x1="55" y1="7" x2="55" y2="123"/><line x1="67" y1="7" x2="67" y2="123"/><line x1="79" y1="7" x2="79" y2="123"/><line x1="91" y1="7" x2="91" y2="123"/><line x1="103" y1="7" x2="103" y2="123"/><line x1="115" y1="7" x2="115" y2="123"/>
  </g>
  <circle cx="65" cy="65" r="47" fill="none" stroke="#233041" stroke-width="0.75" stroke-dasharray="3 4" opacity="0.7" mask="url(#m-lt)"/>
  <polygon points="65,35 90.98,50 90.98,80 65,95 39.02,80 39.02,50" fill="#E04E28"/>
  <line x1="65" y1="65" x2="65" y2="35" stroke="#FFFFFF" stroke-width="2.5" opacity="0.92" stroke-linecap="round"/>
  <line x1="65" y1="65" x2="90.98" y2="50" stroke="#FFFFFF" stroke-width="2.5" opacity="0.92" stroke-linecap="round"/>
  <line x1="65" y1="65" x2="39.02" y2="50" stroke="#FFFFFF" stroke-width="2.5" opacity="0.92" stroke-linecap="round"/>
  <line x1="65" y1="65" x2="90.98" y2="80" stroke="#0B0F14" stroke-width="2.5" opacity="0.72" stroke-linecap="round"/>
  <line x1="65" y1="65" x2="65" y2="95" stroke="#0B0F14" stroke-width="2.5" opacity="0.72" stroke-linecap="round"/>
  <line x1="65" y1="65" x2="39.02" y2="80" stroke="#0B0F14" stroke-width="2.5" opacity="0.72" stroke-linecap="round"/>
  <circle cx="65" cy="35" r="4.5" fill="#FFFFFF"/><circle cx="90.98" cy="50" r="4.5" fill="#FFFFFF"/><circle cx="39.02" cy="50" r="4.5" fill="#FFFFFF"/>
  <circle cx="90.98" cy="80" r="4" fill="#0B0F14" stroke="#E04E28" stroke-width="2"/>
  <circle cx="65" cy="95" r="4" fill="#0B0F14" stroke="#E04E28" stroke-width="2"/>
  <circle cx="39.02" cy="80" r="4" fill="#0B0F14" stroke="#E04E28" stroke-width="2"/>
  <circle cx="65" cy="65" r="9" fill="none" stroke="#FFFFFF" stroke-width="0.85" opacity="0.22"/>
  <circle cx="65" cy="65" r="5.5" fill="#FFFFFF" opacity="0.95"/>
  <line x1="140" y1="16" x2="140" y2="114" stroke="#D8DEE6" stroke-width="0.75"/>
  <text x="156" y="43" font-family="'Space Grotesk',sans-serif" font-weight="500" font-size="11" fill="#9CA3AF" letter-spacing="0.26em">THE</text>
  <text x="152" y="90" font-family="'Space Grotesk',sans-serif" font-weight="700" font-size="50" fill="#0B0F14" letter-spacing="-0.03em">BOSS</text>
  <rect x="152" y="95" width="6" height="4" fill="#E04E28" rx="1"/>
  <rect x="162" y="96" width="196" height="2.5" fill="#E04E28" rx="1.25"/>
  <text x="153" y="113" font-family="'JetBrains Mono',monospace" font-size="8" fill="#E04E28" letter-spacing="0.18em">AGENT STUDIO</text>
</svg>